%TF.GenerationSoftware,KiCad,Pcbnew,9.0.0*%
%TF.CreationDate,2025-09-29T15:59:41+03:00*%
%TF.ProjectId,cakar,63616b61-722e-46b6-9963-61645f706362,rev?*%
%TF.SameCoordinates,Original*%
%TF.FileFunction,Copper,L1,Top*%
%TF.FilePolarity,Positive*%
%FSLAX46Y46*%
G04 Gerber Fmt 4.6, Leading zero omitted, Abs format (unit mm)*
G04 Created by KiCad (PCBNEW 9.0.0) date 2025-09-29 15:59:41*
%MOMM*%
%LPD*%
G01*
G04 APERTURE LIST*
G04 Aperture macros list*
%AMRoundRect*
0 Rectangle with rounded corners*
0 $1 Rounding radius*
0 $2 $3 $4 $5 $6 $7 $8 $9 X,Y pos of 4 corners*
0 Add a 4 corners polygon primitive as box body*
4,1,4,$2,$3,$4,$5,$6,$7,$8,$9,$2,$3,0*
0 Add four circle primitives for the rounded corners*
1,1,$1+$1,$2,$3*
1,1,$1+$1,$4,$5*
1,1,$1+$1,$6,$7*
1,1,$1+$1,$8,$9*
0 Add four rect primitives between the rounded corners*
20,1,$1+$1,$2,$3,$4,$5,0*
20,1,$1+$1,$4,$5,$6,$7,0*
20,1,$1+$1,$6,$7,$8,$9,0*
20,1,$1+$1,$8,$9,$2,$3,0*%
G04 Aperture macros list end*
%TA.AperFunction,ComponentPad*%
%ADD10R,1.600000X1.600000*%
%TD*%
%TA.AperFunction,ComponentPad*%
%ADD11C,1.600000*%
%TD*%
%TA.AperFunction,ComponentPad*%
%ADD12R,1.800000X1.800000*%
%TD*%
%TA.AperFunction,ComponentPad*%
%ADD13C,1.800000*%
%TD*%
%TA.AperFunction,ComponentPad*%
%ADD14C,1.400000*%
%TD*%
%TA.AperFunction,ComponentPad*%
%ADD15O,1.400000X1.400000*%
%TD*%
%TA.AperFunction,ComponentPad*%
%ADD16RoundRect,0.250000X0.550000X-0.550000X0.550000X0.550000X-0.550000X0.550000X-0.550000X-0.550000X0*%
%TD*%
%TA.AperFunction,ComponentPad*%
%ADD17RoundRect,0.250000X-0.845000X0.620000X-0.845000X-0.620000X0.845000X-0.620000X0.845000X0.620000X0*%
%TD*%
%TA.AperFunction,ComponentPad*%
%ADD18O,2.190000X1.740000*%
%TD*%
%TA.AperFunction,Conductor*%
%ADD19C,0.500000*%
%TD*%
G04 APERTURE END LIST*
D10*
%TO.P,C1,1*%
%TO.N,Net-(U1-THR)*%
X131000000Y-107642380D03*
D11*
%TO.P,C1,2*%
%TO.N,GND*%
X131000000Y-105142380D03*
%TD*%
D12*
%TO.P,D2,1,K*%
%TO.N,Net-(D2-K)*%
X136500000Y-100540000D03*
D13*
%TO.P,D2,2,A*%
%TO.N,Net-(D1-K)*%
X136500000Y-98000000D03*
%TD*%
D14*
%TO.P,R2,1*%
%TO.N,Net-(D2-K)*%
X137500000Y-103460000D03*
D15*
%TO.P,R2,2*%
%TO.N,GND*%
X137500000Y-108540000D03*
%TD*%
D14*
%TO.P,R1,1*%
%TO.N,+5V*%
X129500000Y-88460000D03*
D15*
%TO.P,R1,2*%
%TO.N,Net-(D1-A)*%
X129500000Y-93540000D03*
%TD*%
D16*
%TO.P,U1,1,GND*%
%TO.N,GND*%
X142000000Y-103500000D03*
D11*
%TO.P,U1,2,TR*%
%TO.N,Net-(U1-THR)*%
X144540000Y-103500000D03*
%TO.P,U1,3,Q*%
%TO.N,Net-(D1-K)*%
X147080000Y-103500000D03*
%TO.P,U1,4,R*%
%TO.N,+5V*%
X149620000Y-103500000D03*
%TO.P,U1,5,CV*%
%TO.N,Net-(U1-CV)*%
X149620000Y-95880000D03*
%TO.P,U1,6,THR*%
%TO.N,Net-(U1-THR)*%
X147080000Y-95880000D03*
%TO.P,U1,7,DIS*%
%TO.N,Net-(U1-DIS)*%
X144540000Y-95880000D03*
%TO.P,U1,8,VCC*%
%TO.N,+5V*%
X142000000Y-95880000D03*
%TD*%
%TO.P,C2,1*%
%TO.N,Net-(U1-CV)*%
X147000000Y-107500000D03*
%TO.P,C2,2*%
%TO.N,GND*%
X144500000Y-107500000D03*
%TD*%
D12*
%TO.P,D1,1,K*%
%TO.N,Net-(D1-K)*%
X130500000Y-100540000D03*
D13*
%TO.P,D1,2,A*%
%TO.N,Net-(D1-A)*%
X130500000Y-98000000D03*
%TD*%
D14*
%TO.P,R3,1*%
%TO.N,+5V*%
X134000000Y-93540000D03*
D15*
%TO.P,R3,2*%
%TO.N,Net-(U1-DIS)*%
X134000000Y-88460000D03*
%TD*%
D17*
%TO.P,J1,1,Pin_1*%
%TO.N,+5V*%
X146000000Y-89500000D03*
D18*
%TO.P,J1,2,Pin_2*%
%TO.N,GND*%
X146000000Y-92040000D03*
%TD*%
D14*
%TO.P,R4,1*%
%TO.N,Net-(U1-DIS)*%
X138500000Y-93540000D03*
D15*
%TO.P,R4,2*%
%TO.N,Net-(U1-THR)*%
X138500000Y-88460000D03*
%TD*%
D19*
%TO.N,Net-(U1-THR)*%
X147080000Y-95880000D02*
X147080000Y-100960000D01*
X147080000Y-100960000D02*
X144540000Y-103500000D01*
X138500000Y-88460000D02*
X139660000Y-88460000D01*
X139660000Y-88460000D02*
X147080000Y-95880000D01*
%TO.N,Net-(U1-CV)*%
X148369000Y-97131000D02*
X148369000Y-106131000D01*
X149620000Y-95880000D02*
X148369000Y-97131000D01*
X148369000Y-106131000D02*
X147000000Y-107500000D01*
%TO.N,Net-(U1-DIS)*%
X138500000Y-93540000D02*
X142200000Y-93540000D01*
X142200000Y-93540000D02*
X144540000Y-95880000D01*
%TD*%
%TA.AperFunction,Conductor*%
%TO.N,GND*%
G36*
X128536894Y-87520185D02*
G01*
X128582649Y-87572989D01*
X128592593Y-87642147D01*
X128570174Y-87697383D01*
X128517644Y-87769684D01*
X128473240Y-87830800D01*
X128387454Y-87999163D01*
X128329059Y-88178881D01*
X128299500Y-88365513D01*
X128299500Y-88554486D01*
X128329059Y-88741118D01*
X128387454Y-88920836D01*
X128473240Y-89089199D01*
X128584310Y-89242073D01*
X128717927Y-89375690D01*
X128870801Y-89486760D01*
X128950347Y-89527290D01*
X129039163Y-89572545D01*
X129039165Y-89572545D01*
X129039168Y-89572547D01*
X129135497Y-89603846D01*
X129218881Y-89630940D01*
X129405514Y-89660500D01*
X129405519Y-89660500D01*
X129594486Y-89660500D01*
X129781118Y-89630940D01*
X129960832Y-89572547D01*
X130129199Y-89486760D01*
X130282073Y-89375690D01*
X130415690Y-89242073D01*
X130526760Y-89089199D01*
X130612547Y-88920832D01*
X130670940Y-88741118D01*
X130673144Y-88727200D01*
X130700500Y-88554486D01*
X130700500Y-88365513D01*
X130670940Y-88178881D01*
X130612545Y-87999163D01*
X130526759Y-87830800D01*
X130524588Y-87827812D01*
X130429826Y-87697383D01*
X130406347Y-87631580D01*
X130422172Y-87563526D01*
X130472278Y-87514831D01*
X130530145Y-87500500D01*
X132969855Y-87500500D01*
X133036894Y-87520185D01*
X133082649Y-87572989D01*
X133092593Y-87642147D01*
X133070174Y-87697383D01*
X133017644Y-87769684D01*
X132973240Y-87830800D01*
X132887454Y-87999163D01*
X132829059Y-88178881D01*
X132799500Y-88365513D01*
X132799500Y-88554486D01*
X132829059Y-88741118D01*
X132887454Y-88920836D01*
X132973240Y-89089199D01*
X133084310Y-89242073D01*
X133217927Y-89375690D01*
X133370801Y-89486760D01*
X133450347Y-89527290D01*
X133539163Y-89572545D01*
X133539165Y-89572545D01*
X133539168Y-89572547D01*
X133635497Y-89603846D01*
X133718881Y-89630940D01*
X133905514Y-89660500D01*
X133905519Y-89660500D01*
X134094486Y-89660500D01*
X134281118Y-89630940D01*
X134460832Y-89572547D01*
X134629199Y-89486760D01*
X134782073Y-89375690D01*
X134915690Y-89242073D01*
X135026760Y-89089199D01*
X135112547Y-88920832D01*
X135170940Y-88741118D01*
X135173144Y-88727200D01*
X135200500Y-88554486D01*
X135200500Y-88365513D01*
X135170940Y-88178881D01*
X135112545Y-87999163D01*
X135026759Y-87830800D01*
X135024588Y-87827812D01*
X134929826Y-87697383D01*
X134906347Y-87631580D01*
X134922172Y-87563526D01*
X134972278Y-87514831D01*
X135030145Y-87500500D01*
X137469855Y-87500500D01*
X137536894Y-87520185D01*
X137582649Y-87572989D01*
X137592593Y-87642147D01*
X137570174Y-87697383D01*
X137517644Y-87769684D01*
X137473240Y-87830800D01*
X137387454Y-87999163D01*
X137329059Y-88178881D01*
X137299500Y-88365513D01*
X137299500Y-88554486D01*
X137329059Y-88741118D01*
X137387454Y-88920836D01*
X137473240Y-89089199D01*
X137584310Y-89242073D01*
X137717927Y-89375690D01*
X137870801Y-89486760D01*
X137950347Y-89527290D01*
X138039163Y-89572545D01*
X138039165Y-89572545D01*
X138039168Y-89572547D01*
X138135497Y-89603846D01*
X138218881Y-89630940D01*
X138405514Y-89660500D01*
X138405519Y-89660500D01*
X138594486Y-89660500D01*
X138781118Y-89630940D01*
X138960832Y-89572547D01*
X139129199Y-89486760D01*
X139282073Y-89375690D01*
X139310514Y-89347248D01*
X139371835Y-89313762D01*
X139441527Y-89318744D01*
X139485878Y-89347246D01*
X142052632Y-91914000D01*
X144507699Y-94369066D01*
X144513732Y-94380115D01*
X144523366Y-94388225D01*
X144530161Y-94410202D01*
X144541184Y-94430389D01*
X144540285Y-94442948D01*
X144544005Y-94454977D01*
X144537840Y-94477135D01*
X144536200Y-94500081D01*
X144528654Y-94510160D01*
X144525280Y-94522290D01*
X144508112Y-94537599D01*
X144494328Y-94556014D01*
X144481284Y-94561526D01*
X144473135Y-94568794D01*
X144439416Y-94579220D01*
X144381973Y-94588318D01*
X144312679Y-94579363D01*
X144274894Y-94553526D01*
X142678421Y-92957052D01*
X142678414Y-92957046D01*
X142604729Y-92907812D01*
X142604729Y-92907813D01*
X142555491Y-92874913D01*
X142418917Y-92818343D01*
X142418907Y-92818340D01*
X142273920Y-92789500D01*
X142273918Y-92789500D01*
X139498625Y-92789500D01*
X139431586Y-92769815D01*
X139410944Y-92753181D01*
X139282075Y-92624312D01*
X139282073Y-92624310D01*
X139129199Y-92513240D01*
X138960836Y-92427454D01*
X138781118Y-92369059D01*
X138594486Y-92339500D01*
X138594481Y-92339500D01*
X138405519Y-92339500D01*
X138405514Y-92339500D01*
X138218881Y-92369059D01*
X138039163Y-92427454D01*
X137870800Y-92513240D01*
X137798320Y-92565901D01*
X137717927Y-92624310D01*
X137717925Y-92624312D01*
X137717924Y-92624312D01*
X137584312Y-92757924D01*
X137584312Y-92757925D01*
X137584310Y-92757927D01*
X137584231Y-92758036D01*
X137473240Y-92910800D01*
X137387454Y-93079163D01*
X137329059Y-93258881D01*
X137299500Y-93445513D01*
X137299500Y-93634486D01*
X137329059Y-93821118D01*
X137387454Y-94000836D01*
X137473240Y-94169199D01*
X137584310Y-94322073D01*
X137717927Y-94455690D01*
X137870801Y-94566760D01*
X137923794Y-94593761D01*
X138039163Y-94652545D01*
X138039165Y-94652545D01*
X138039168Y-94652547D01*
X138107594Y-94674780D01*
X138218881Y-94710940D01*
X138405514Y-94740500D01*
X138405519Y-94740500D01*
X138594486Y-94740500D01*
X138781118Y-94710940D01*
X138960832Y-94652547D01*
X139129199Y-94566760D01*
X139282073Y-94455690D01*
X139410944Y-94326819D01*
X139472267Y-94293334D01*
X139498625Y-94290500D01*
X141837770Y-94290500D01*
X141867210Y-94299144D01*
X141897197Y-94305668D01*
X141902212Y-94309422D01*
X141904809Y-94310185D01*
X141925451Y-94326819D01*
X141967698Y-94369066D01*
X142001183Y-94430389D01*
X141996199Y-94500081D01*
X141954327Y-94556014D01*
X141899415Y-94579220D01*
X141695465Y-94611522D01*
X141500776Y-94674781D01*
X141318386Y-94767715D01*
X141152786Y-94888028D01*
X141008028Y-95032786D01*
X140887715Y-95198386D01*
X140794781Y-95380776D01*
X140731522Y-95575465D01*
X140699500Y-95777648D01*
X140699500Y-95982351D01*
X140731522Y-96184534D01*
X140794781Y-96379223D01*
X140887715Y-96561613D01*
X141008028Y-96727213D01*
X141152786Y-96871971D01*
X141274535Y-96960425D01*
X141318390Y-96992287D01*
X141434607Y-97051503D01*
X141500776Y-97085218D01*
X141500778Y-97085218D01*
X141500781Y-97085220D01*
X141605137Y-97119127D01*
X141695465Y-97148477D01*
X141779564Y-97161797D01*
X141897648Y-97180500D01*
X141897649Y-97180500D01*
X142102351Y-97180500D01*
X142102352Y-97180500D01*
X142304534Y-97148477D01*
X142499219Y-97085220D01*
X142681610Y-96992287D01*
X142801619Y-96905096D01*
X142847213Y-96871971D01*
X142847215Y-96871968D01*
X142847219Y-96871966D01*
X142991966Y-96727219D01*
X142991968Y-96727215D01*
X142991971Y-96727213D01*
X143112284Y-96561614D01*
X143112285Y-96561613D01*
X143112287Y-96561610D01*
X143159516Y-96468917D01*
X143207489Y-96418123D01*
X143275310Y-96401328D01*
X143341445Y-96423865D01*
X143380485Y-96468919D01*
X143427715Y-96561614D01*
X143548028Y-96727213D01*
X143692786Y-96871971D01*
X143814535Y-96960425D01*
X143858390Y-96992287D01*
X143974607Y-97051503D01*
X144040776Y-97085218D01*
X144040778Y-97085218D01*
X144040781Y-97085220D01*
X144145137Y-97119127D01*
X144235465Y-97148477D01*
X144319564Y-97161797D01*
X144437648Y-97180500D01*
X144437649Y-97180500D01*
X144642351Y-97180500D01*
X144642352Y-97180500D01*
X144844534Y-97148477D01*
X145039219Y-97085220D01*
X145221610Y-96992287D01*
X145341619Y-96905096D01*
X145387213Y-96871971D01*
X145387215Y-96871968D01*
X145387219Y-96871966D01*
X145531966Y-96727219D01*
X145531968Y-96727215D01*
X145531971Y-96727213D01*
X145652284Y-96561614D01*
X145652285Y-96561613D01*
X145652287Y-96561610D01*
X145699516Y-96468917D01*
X145747489Y-96418123D01*
X145815310Y-96401328D01*
X145881445Y-96423865D01*
X145920485Y-96468919D01*
X145967715Y-96561614D01*
X146088028Y-96727213D01*
X146088034Y-96727219D01*
X146232781Y-96871966D01*
X146278384Y-96905098D01*
X146321050Y-96960425D01*
X146329500Y-97005416D01*
X146329500Y-100597770D01*
X146309815Y-100664809D01*
X146293181Y-100685451D01*
X144805105Y-102173526D01*
X144743782Y-102207011D01*
X144698026Y-102208318D01*
X144642352Y-102199500D01*
X144437648Y-102199500D01*
X144413329Y-102203351D01*
X144235465Y-102231522D01*
X144040776Y-102294781D01*
X143858386Y-102387715D01*
X143692786Y-102508028D01*
X143548032Y-102652782D01*
X143479616Y-102746949D01*
X143424286Y-102789614D01*
X143354672Y-102795593D01*
X143292877Y-102762987D01*
X143261592Y-102713067D01*
X143234358Y-102630880D01*
X143234356Y-102630875D01*
X143142315Y-102481654D01*
X143018345Y-102357684D01*
X142869124Y-102265643D01*
X142869119Y-102265641D01*
X142702697Y-102210494D01*
X142702690Y-102210493D01*
X142599986Y-102200000D01*
X142250000Y-102200000D01*
X142250000Y-103184314D01*
X142245606Y-103179920D01*
X142154394Y-103127259D01*
X142052661Y-103100000D01*
X141947339Y-103100000D01*
X141845606Y-103127259D01*
X141754394Y-103179920D01*
X141750000Y-103184314D01*
X141750000Y-102200000D01*
X141400028Y-102200000D01*
X141400012Y-102200001D01*
X141297302Y-102210494D01*
X141130880Y-102265641D01*
X141130875Y-102265643D01*
X140981654Y-102357684D01*
X140857684Y-102481654D01*
X140765643Y-102630875D01*
X140765641Y-102630880D01*
X140710494Y-102797302D01*
X140710493Y-102797309D01*
X140700000Y-102900013D01*
X140700000Y-103250000D01*
X141684314Y-103250000D01*
X141679920Y-103254394D01*
X141627259Y-103345606D01*
X141600000Y-103447339D01*
X141600000Y-103552661D01*
X141627259Y-103654394D01*
X141679920Y-103745606D01*
X141684314Y-103750000D01*
X140700001Y-103750000D01*
X140700001Y-104099986D01*
X140710494Y-104202697D01*
X140765641Y-104369119D01*
X140765643Y-104369124D01*
X140857684Y-104518345D01*
X140981654Y-104642315D01*
X141130875Y-104734356D01*
X141130880Y-104734358D01*
X141297302Y-104789505D01*
X141297309Y-104789506D01*
X141400019Y-104799999D01*
X141749999Y-104799999D01*
X141750000Y-104799998D01*
X141750000Y-103815686D01*
X141754394Y-103820080D01*
X141845606Y-103872741D01*
X141947339Y-103900000D01*
X142052661Y-103900000D01*
X142154394Y-103872741D01*
X142245606Y-103820080D01*
X142250000Y-103815686D01*
X142250000Y-104799999D01*
X142599972Y-104799999D01*
X142599986Y-104799998D01*
X142702697Y-104789505D01*
X142869119Y-104734358D01*
X142869124Y-104734356D01*
X143018345Y-104642315D01*
X143142315Y-104518345D01*
X143234356Y-104369124D01*
X143234359Y-104369117D01*
X143261592Y-104286932D01*
X143301364Y-104229487D01*
X143365879Y-104202663D01*
X143434655Y-104214977D01*
X143479617Y-104253050D01*
X143548034Y-104347219D01*
X143692786Y-104491971D01*
X143803689Y-104572545D01*
X143858390Y-104612287D01*
X143974607Y-104671503D01*
X144040776Y-104705218D01*
X144040778Y-104705218D01*
X144040781Y-104705220D01*
X144130459Y-104734358D01*
X144235465Y-104768477D01*
X144336557Y-104784488D01*
X144437648Y-104800500D01*
X144437649Y-104800500D01*
X144642351Y-104800500D01*
X144642352Y-104800500D01*
X144844534Y-104768477D01*
X145039219Y-104705220D01*
X145221610Y-104612287D01*
X145314590Y-104544732D01*
X145387213Y-104491971D01*
X145387215Y-104491968D01*
X145387219Y-104491966D01*
X145531966Y-104347219D01*
X145531968Y-104347215D01*
X145531971Y-104347213D01*
X145652284Y-104181614D01*
X145652285Y-104181613D01*
X145652287Y-104181610D01*
X145699516Y-104088917D01*
X145747489Y-104038123D01*
X145815310Y-104021328D01*
X145881445Y-104043865D01*
X145920483Y-104088917D01*
X145964348Y-104175006D01*
X145967715Y-104181614D01*
X146088028Y-104347213D01*
X146232786Y-104491971D01*
X146343689Y-104572545D01*
X146398390Y-104612287D01*
X146514607Y-104671503D01*
X146580776Y-104705218D01*
X146580778Y-104705218D01*
X146580781Y-104705220D01*
X146670459Y-104734358D01*
X146775465Y-104768477D01*
X146876557Y-104784488D01*
X146977648Y-104800500D01*
X146977649Y-104800500D01*
X147182351Y-104800500D01*
X147182352Y-104800500D01*
X147384534Y-104768477D01*
X147456182Y-104745196D01*
X147526022Y-104743201D01*
X147585855Y-104779281D01*
X147616684Y-104841982D01*
X147618500Y-104863128D01*
X147618500Y-105768770D01*
X147598815Y-105835809D01*
X147582181Y-105856451D01*
X147265105Y-106173526D01*
X147203782Y-106207011D01*
X147158026Y-106208318D01*
X147102352Y-106199500D01*
X146897648Y-106199500D01*
X146873329Y-106203351D01*
X146695465Y-106231522D01*
X146500776Y-106294781D01*
X146318386Y-106387715D01*
X146152786Y-106508028D01*
X146008028Y-106652786D01*
X145887714Y-106818386D01*
X145860203Y-106872379D01*
X145812227Y-106923174D01*
X145744406Y-106939968D01*
X145678272Y-106917429D01*
X145639234Y-106872376D01*
X145611861Y-106818652D01*
X145579474Y-106774077D01*
X145579474Y-106774076D01*
X144900000Y-107453551D01*
X144900000Y-107447339D01*
X144872741Y-107345606D01*
X144820080Y-107254394D01*
X144745606Y-107179920D01*
X144654394Y-107127259D01*
X144552661Y-107100000D01*
X144546446Y-107100000D01*
X145225922Y-106420524D01*
X145225921Y-106420523D01*
X145181359Y-106388147D01*
X145181350Y-106388141D01*
X144999031Y-106295244D01*
X144804417Y-106232009D01*
X144602317Y-106200000D01*
X144397683Y-106200000D01*
X144195582Y-106232009D01*
X144000968Y-106295244D01*
X143818644Y-106388143D01*
X143774077Y-106420523D01*
X143774077Y-106420524D01*
X144453554Y-107100000D01*
X144447339Y-107100000D01*
X144345606Y-107127259D01*
X144254394Y-107179920D01*
X144179920Y-107254394D01*
X144127259Y-107345606D01*
X144100000Y-107447339D01*
X144100000Y-107453553D01*
X143420524Y-106774077D01*
X143420523Y-106774077D01*
X143388143Y-106818644D01*
X143295244Y-107000968D01*
X143232009Y-107195582D01*
X143200000Y-107397682D01*
X143200000Y-107602317D01*
X143232009Y-107804417D01*
X143295244Y-107999031D01*
X143388141Y-108181350D01*
X143388147Y-108181359D01*
X143420523Y-108225921D01*
X143420524Y-108225922D01*
X144100000Y-107546446D01*
X144100000Y-107552661D01*
X144127259Y-107654394D01*
X144179920Y-107745606D01*
X144254394Y-107820080D01*
X144345606Y-107872741D01*
X144447339Y-107900000D01*
X144453553Y-107900000D01*
X143774076Y-108579474D01*
X143818650Y-108611859D01*
X144000968Y-108704755D01*
X144195582Y-108767990D01*
X144397683Y-108800000D01*
X144602317Y-108800000D01*
X144804417Y-108767990D01*
X144999031Y-108704755D01*
X145181349Y-108611859D01*
X145225921Y-108579474D01*
X144546447Y-107900000D01*
X144552661Y-107900000D01*
X144654394Y-107872741D01*
X144745606Y-107820080D01*
X144820080Y-107745606D01*
X144872741Y-107654394D01*
X144900000Y-107552661D01*
X144900000Y-107546447D01*
X145579474Y-108225921D01*
X145611859Y-108181349D01*
X145639233Y-108127624D01*
X145687207Y-108076827D01*
X145755028Y-108060031D01*
X145821163Y-108082567D01*
X145860203Y-108127621D01*
X145887713Y-108181611D01*
X146008028Y-108347213D01*
X146152786Y-108491971D01*
X146273226Y-108579474D01*
X146318390Y-108612287D01*
X146434607Y-108671503D01*
X146500776Y-108705218D01*
X146500778Y-108705218D01*
X146500781Y-108705220D01*
X146605137Y-108739127D01*
X146695465Y-108768477D01*
X146796557Y-108784488D01*
X146897648Y-108800500D01*
X146897649Y-108800500D01*
X147102351Y-108800500D01*
X147102352Y-108800500D01*
X147304534Y-108768477D01*
X147499219Y-108705220D01*
X147681610Y-108612287D01*
X147774590Y-108544732D01*
X147847213Y-108491971D01*
X147847215Y-108491968D01*
X147847219Y-108491966D01*
X147991966Y-108347219D01*
X147991968Y-108347215D01*
X147991971Y-108347213D01*
X148055385Y-108259930D01*
X148112287Y-108181610D01*
X148205220Y-107999219D01*
X148268477Y-107804534D01*
X148300500Y-107602352D01*
X148300500Y-107397648D01*
X148291681Y-107341971D01*
X148300635Y-107272679D01*
X148326470Y-107234895D01*
X148951951Y-106609416D01*
X149034084Y-106486495D01*
X149090658Y-106349913D01*
X149119500Y-106204918D01*
X149119500Y-106057083D01*
X149119500Y-104875475D01*
X149139185Y-104808436D01*
X149191989Y-104762681D01*
X149261147Y-104752737D01*
X149281820Y-104757545D01*
X149315458Y-104768475D01*
X149315461Y-104768475D01*
X149315466Y-104768477D01*
X149517648Y-104800500D01*
X149517649Y-104800500D01*
X149722351Y-104800500D01*
X149722352Y-104800500D01*
X149924534Y-104768477D01*
X150119219Y-104705220D01*
X150301610Y-104612287D01*
X150394590Y-104544732D01*
X150467213Y-104491971D01*
X150467215Y-104491968D01*
X150467219Y-104491966D01*
X150611966Y-104347219D01*
X150611968Y-104347215D01*
X150611971Y-104347213D01*
X150688357Y-104242075D01*
X150732287Y-104181610D01*
X150825220Y-103999219D01*
X150888477Y-103804534D01*
X150920500Y-103602352D01*
X150920500Y-103397648D01*
X150912257Y-103345606D01*
X150888477Y-103195465D01*
X150825218Y-103000776D01*
X150773876Y-102900013D01*
X150732287Y-102818390D01*
X150692035Y-102762987D01*
X150611971Y-102652786D01*
X150467213Y-102508028D01*
X150301613Y-102387715D01*
X150301612Y-102387714D01*
X150301610Y-102387713D01*
X150242675Y-102357684D01*
X150119223Y-102294781D01*
X149924534Y-102231522D01*
X149749995Y-102203878D01*
X149722352Y-102199500D01*
X149517648Y-102199500D01*
X149489805Y-102203910D01*
X149315464Y-102231523D01*
X149315457Y-102231524D01*
X149281817Y-102242455D01*
X149211976Y-102244450D01*
X149152144Y-102208369D01*
X149121316Y-102145668D01*
X149119500Y-102124524D01*
X149119500Y-97493228D01*
X149139185Y-97426189D01*
X149155815Y-97405551D01*
X149354894Y-97206471D01*
X149416215Y-97172988D01*
X149461970Y-97171681D01*
X149517648Y-97180500D01*
X149517649Y-97180500D01*
X149722351Y-97180500D01*
X149722352Y-97180500D01*
X149924534Y-97148477D01*
X150119219Y-97085220D01*
X150301610Y-96992287D01*
X150421619Y-96905096D01*
X150467213Y-96871971D01*
X150467215Y-96871968D01*
X150467219Y-96871966D01*
X150611966Y-96727219D01*
X150611968Y-96727215D01*
X150611971Y-96727213D01*
X150679704Y-96633985D01*
X150732287Y-96561610D01*
X150825220Y-96379219D01*
X150888477Y-96184534D01*
X150920500Y-95982352D01*
X150920500Y-95777648D01*
X150888477Y-95575466D01*
X150825220Y-95380781D01*
X150825218Y-95380778D01*
X150825218Y-95380776D01*
X150779515Y-95291080D01*
X150732287Y-95198390D01*
X150724556Y-95187749D01*
X150611971Y-95032786D01*
X150467213Y-94888028D01*
X150301613Y-94767715D01*
X150301612Y-94767714D01*
X150301610Y-94767713D01*
X150244653Y-94738691D01*
X150119223Y-94674781D01*
X149924534Y-94611522D01*
X149749995Y-94583878D01*
X149722352Y-94579500D01*
X149517648Y-94579500D01*
X149493329Y-94583351D01*
X149315465Y-94611522D01*
X149120776Y-94674781D01*
X148938386Y-94767715D01*
X148772786Y-94888028D01*
X148628028Y-95032786D01*
X148507715Y-95198386D01*
X148460485Y-95291080D01*
X148412510Y-95341876D01*
X148344689Y-95358671D01*
X148278554Y-95336134D01*
X148239515Y-95291080D01*
X148238883Y-95289840D01*
X148192287Y-95198390D01*
X148184556Y-95187749D01*
X148071971Y-95032786D01*
X147927213Y-94888028D01*
X147761613Y-94767715D01*
X147761612Y-94767714D01*
X147761610Y-94767713D01*
X147704653Y-94738691D01*
X147579223Y-94674781D01*
X147384534Y-94611522D01*
X147209995Y-94583878D01*
X147182352Y-94579500D01*
X146977648Y-94579500D01*
X146921971Y-94588318D01*
X146852678Y-94579363D01*
X146814893Y-94553526D01*
X145786319Y-93524952D01*
X145752834Y-93463629D01*
X145750000Y-93437271D01*
X145750000Y-92582709D01*
X145770339Y-92594452D01*
X145921667Y-92635000D01*
X146078333Y-92635000D01*
X146229661Y-92594452D01*
X146250000Y-92582709D01*
X146250000Y-93410000D01*
X146332820Y-93410000D01*
X146545809Y-93376265D01*
X146750901Y-93309627D01*
X146943036Y-93211728D01*
X147117496Y-93084974D01*
X147117497Y-93084974D01*
X147269974Y-92932497D01*
X147269974Y-92932496D01*
X147396728Y-92758036D01*
X147494627Y-92565901D01*
X147561266Y-92360809D01*
X147572481Y-92290000D01*
X146542709Y-92290000D01*
X146554452Y-92269661D01*
X146595000Y-92118333D01*
X146595000Y-91961667D01*
X146554452Y-91810339D01*
X146542709Y-91790000D01*
X147572481Y-91790000D01*
X147561266Y-91719190D01*
X147494627Y-91514098D01*
X147396728Y-91321963D01*
X147269974Y-91147503D01*
X147269974Y-91147502D01*
X147127892Y-91005420D01*
X147094407Y-90944097D01*
X147099391Y-90874405D01*
X147141263Y-90818472D01*
X147163177Y-90805353D01*
X147164323Y-90804817D01*
X147164334Y-90804814D01*
X147313656Y-90712712D01*
X147437712Y-90588656D01*
X147529814Y-90439334D01*
X147584999Y-90272797D01*
X147595500Y-90170009D01*
X147595499Y-88829992D01*
X147584999Y-88727203D01*
X147529814Y-88560666D01*
X147437712Y-88411344D01*
X147313656Y-88287288D01*
X147164334Y-88195186D01*
X146997797Y-88140001D01*
X146997795Y-88140000D01*
X146895010Y-88129500D01*
X145104998Y-88129500D01*
X145104981Y-88129501D01*
X145002203Y-88140000D01*
X145002200Y-88140001D01*
X144835668Y-88195185D01*
X144835663Y-88195187D01*
X144686342Y-88287289D01*
X144562289Y-88411342D01*
X144470187Y-88560663D01*
X144470186Y-88560666D01*
X144415001Y-88727203D01*
X144415001Y-88727204D01*
X144415000Y-88727204D01*
X144404500Y-88829983D01*
X144404500Y-90170001D01*
X144404501Y-90170018D01*
X144415000Y-90272796D01*
X144415001Y-90272799D01*
X144470185Y-90439331D01*
X144470186Y-90439334D01*
X144562288Y-90588656D01*
X144686344Y-90712712D01*
X144835666Y-90804814D01*
X144835667Y-90804814D01*
X144835670Y-90804816D01*
X144836828Y-90805356D01*
X144837488Y-90805937D01*
X144841813Y-90808605D01*
X144841357Y-90809343D01*
X144889268Y-90851527D01*
X144908422Y-90918720D01*
X144888208Y-90985601D01*
X144872108Y-91005420D01*
X144730022Y-91147506D01*
X144603271Y-91321963D01*
X144505372Y-91514098D01*
X144438733Y-91719190D01*
X144414158Y-91874353D01*
X144384229Y-91937488D01*
X144324917Y-91974419D01*
X144255054Y-91973421D01*
X144204004Y-91942636D01*
X140138421Y-87877052D01*
X140138414Y-87877046D01*
X140064729Y-87827812D01*
X140064729Y-87827813D01*
X140015495Y-87794916D01*
X140015492Y-87794914D01*
X140015491Y-87794914D01*
X139880649Y-87739061D01*
X139826245Y-87695220D01*
X139804180Y-87628926D01*
X139821459Y-87561227D01*
X139872596Y-87513616D01*
X139928101Y-87500500D01*
X151375500Y-87500500D01*
X151442539Y-87520185D01*
X151488294Y-87572989D01*
X151499500Y-87624500D01*
X151499500Y-109875500D01*
X151479815Y-109942539D01*
X151427011Y-109988294D01*
X151375500Y-109999500D01*
X127624500Y-109999500D01*
X127557461Y-109979815D01*
X127511706Y-109927011D01*
X127500500Y-109875500D01*
X127500500Y-106794515D01*
X129699500Y-106794515D01*
X129699500Y-108490250D01*
X129699501Y-108490256D01*
X129705908Y-108549863D01*
X129756202Y-108684708D01*
X129756206Y-108684715D01*
X129842452Y-108799924D01*
X129842455Y-108799927D01*
X129957664Y-108886173D01*
X129957671Y-108886177D01*
X130092517Y-108936471D01*
X130092516Y-108936471D01*
X130099444Y-108937215D01*
X130152127Y-108942880D01*
X131847872Y-108942879D01*
X131907483Y-108936471D01*
X132042331Y-108886176D01*
X132157546Y-108799926D01*
X132164977Y-108790000D01*
X136324638Y-108790000D01*
X136329548Y-108821002D01*
X136387914Y-109000637D01*
X136473670Y-109168940D01*
X136584685Y-109321741D01*
X136584689Y-109321746D01*
X136718253Y-109455310D01*
X136718258Y-109455314D01*
X136871059Y-109566329D01*
X137039362Y-109652085D01*
X137218997Y-109710451D01*
X137250000Y-109715362D01*
X137250000Y-109715361D01*
X137750000Y-109715361D01*
X137781002Y-109710451D01*
X137960637Y-109652085D01*
X138128940Y-109566329D01*
X138281741Y-109455314D01*
X138281746Y-109455310D01*
X138415310Y-109321746D01*
X138415314Y-109321741D01*
X138526329Y-109168940D01*
X138612085Y-109000637D01*
X138670451Y-108821002D01*
X138675362Y-108790000D01*
X137750000Y-108790000D01*
X137750000Y-109715361D01*
X137250000Y-109715361D01*
X137250000Y-108790000D01*
X136324638Y-108790000D01*
X132164977Y-108790000D01*
X132243796Y-108684711D01*
X132294091Y-108549863D01*
X132300106Y-108493922D01*
X137150000Y-108493922D01*
X137150000Y-108586078D01*
X137173852Y-108675095D01*
X137219930Y-108754905D01*
X137285095Y-108820070D01*
X137364905Y-108866148D01*
X137453922Y-108890000D01*
X137546078Y-108890000D01*
X137635095Y-108866148D01*
X137714905Y-108820070D01*
X137780070Y-108754905D01*
X137826148Y-108675095D01*
X137850000Y-108586078D01*
X137850000Y-108493922D01*
X137826148Y-108404905D01*
X137780070Y-108325095D01*
X137744975Y-108290000D01*
X137750000Y-108290000D01*
X138675362Y-108290000D01*
X138670451Y-108258997D01*
X138612085Y-108079362D01*
X138526329Y-107911059D01*
X138415314Y-107758258D01*
X138415310Y-107758253D01*
X138281746Y-107624689D01*
X138281741Y-107624685D01*
X138128938Y-107513668D01*
X138108592Y-107503301D01*
X138108591Y-107503301D01*
X137960634Y-107427913D01*
X137960636Y-107427913D01*
X137781004Y-107369549D01*
X137780995Y-107369547D01*
X137750000Y-107364637D01*
X137750000Y-108290000D01*
X137744975Y-108290000D01*
X137714905Y-108259930D01*
X137635095Y-108213852D01*
X137546078Y-108190000D01*
X137453922Y-108190000D01*
X137364905Y-108213852D01*
X137285095Y-108259930D01*
X137219930Y-108325095D01*
X137173852Y-108404905D01*
X137150000Y-108493922D01*
X132300106Y-108493922D01*
X132300500Y-108490253D01*
X132300500Y-108290000D01*
X136324638Y-108290000D01*
X137250000Y-108290000D01*
X137250000Y-107364637D01*
X137249999Y-107364637D01*
X137219004Y-107369547D01*
X137218995Y-107369549D01*
X137039364Y-107427913D01*
X136871059Y-107513670D01*
X136718258Y-107624685D01*
X136718253Y-107624689D01*
X136584689Y-107758253D01*
X136584685Y-107758258D01*
X136473670Y-107911059D01*
X136387914Y-108079362D01*
X136329548Y-108258997D01*
X136324638Y-108290000D01*
X132300500Y-108290000D01*
X132300499Y-106794508D01*
X132294091Y-106734897D01*
X132247289Y-106609415D01*
X132243797Y-106600051D01*
X132243795Y-106600048D01*
X132243792Y-106600044D01*
X132157546Y-106484834D01*
X132134709Y-106467738D01*
X132042335Y-106398586D01*
X132042328Y-106398582D01*
X131907482Y-106348288D01*
X131907483Y-106348288D01*
X131847883Y-106341881D01*
X131847881Y-106341880D01*
X131847873Y-106341880D01*
X131847864Y-106341880D01*
X131844548Y-106341702D01*
X131844632Y-106340122D01*
X131783579Y-106322195D01*
X131737824Y-106269391D01*
X131730173Y-106226105D01*
X131046447Y-105542380D01*
X131052661Y-105542380D01*
X131154394Y-105515121D01*
X131245606Y-105462460D01*
X131320080Y-105387986D01*
X131372741Y-105296774D01*
X131400000Y-105195041D01*
X131400000Y-105188827D01*
X132079474Y-105868301D01*
X132111859Y-105823729D01*
X132204755Y-105641411D01*
X132267990Y-105446797D01*
X132300000Y-105244697D01*
X132300000Y-105040062D01*
X132267990Y-104837962D01*
X132204755Y-104643348D01*
X132111859Y-104461030D01*
X132079474Y-104416457D01*
X132079474Y-104416456D01*
X131400000Y-105095931D01*
X131400000Y-105089719D01*
X131372741Y-104987986D01*
X131320080Y-104896774D01*
X131245606Y-104822300D01*
X131154394Y-104769639D01*
X131052661Y-104742380D01*
X131046446Y-104742380D01*
X131725922Y-104062904D01*
X131725921Y-104062903D01*
X131681359Y-104030527D01*
X131681350Y-104030521D01*
X131499031Y-103937624D01*
X131304417Y-103874389D01*
X131102317Y-103842380D01*
X130897683Y-103842380D01*
X130695582Y-103874389D01*
X130500968Y-103937624D01*
X130318644Y-104030523D01*
X130274077Y-104062903D01*
X130274077Y-104062904D01*
X130953554Y-104742380D01*
X130947339Y-104742380D01*
X130845606Y-104769639D01*
X130754394Y-104822300D01*
X130679920Y-104896774D01*
X130627259Y-104987986D01*
X130600000Y-105089719D01*
X130600000Y-105095933D01*
X129920524Y-104416457D01*
X129920523Y-104416457D01*
X129888143Y-104461024D01*
X129795244Y-104643348D01*
X129732009Y-104837962D01*
X129700000Y-105040062D01*
X129700000Y-105244697D01*
X129732009Y-105446797D01*
X129795244Y-105641411D01*
X129888141Y-105823730D01*
X129888147Y-105823739D01*
X129920523Y-105868301D01*
X129920524Y-105868302D01*
X130600000Y-105188826D01*
X130600000Y-105195041D01*
X130627259Y-105296774D01*
X130679920Y-105387986D01*
X130754394Y-105462460D01*
X130845606Y-105515121D01*
X130947339Y-105542380D01*
X130953553Y-105542380D01*
X130269067Y-106226863D01*
X130258633Y-106276530D01*
X130209581Y-106326286D01*
X130155365Y-106340380D01*
X130155423Y-106341479D01*
X130155429Y-106341526D01*
X130155426Y-106341526D01*
X130155436Y-106341704D01*
X130152123Y-106341881D01*
X130092516Y-106348288D01*
X129957671Y-106398582D01*
X129957664Y-106398586D01*
X129842455Y-106484832D01*
X129842452Y-106484835D01*
X129756206Y-106600044D01*
X129756202Y-106600051D01*
X129705908Y-106734897D01*
X129699501Y-106794496D01*
X129699501Y-106794503D01*
X129699500Y-106794515D01*
X127500500Y-106794515D01*
X127500500Y-103365513D01*
X136299500Y-103365513D01*
X136299500Y-103554486D01*
X136329059Y-103741118D01*
X136387454Y-103920836D01*
X136459842Y-104062904D01*
X136473240Y-104089199D01*
X136584310Y-104242073D01*
X136717927Y-104375690D01*
X136870801Y-104486760D01*
X136932790Y-104518345D01*
X137039163Y-104572545D01*
X137039165Y-104572545D01*
X137039168Y-104572547D01*
X137135497Y-104603846D01*
X137218881Y-104630940D01*
X137405514Y-104660500D01*
X137405519Y-104660500D01*
X137594486Y-104660500D01*
X137781118Y-104630940D01*
X137960832Y-104572547D01*
X138129199Y-104486760D01*
X138282073Y-104375690D01*
X138415690Y-104242073D01*
X138526760Y-104089199D01*
X138612547Y-103920832D01*
X138670940Y-103741118D01*
X138680741Y-103679240D01*
X138700500Y-103554486D01*
X138700500Y-103365513D01*
X138670940Y-103178881D01*
X138652877Y-103123291D01*
X138612547Y-102999168D01*
X138612544Y-102999164D01*
X138612544Y-102999161D01*
X138589105Y-102953160D01*
X138589104Y-102953159D01*
X138526759Y-102830800D01*
X138415690Y-102677927D01*
X138282073Y-102544310D01*
X138129199Y-102433240D01*
X137960836Y-102347454D01*
X137781118Y-102289059D01*
X137594486Y-102259500D01*
X137594481Y-102259500D01*
X137405519Y-102259500D01*
X137405514Y-102259500D01*
X137218881Y-102289059D01*
X137039163Y-102347454D01*
X136870800Y-102433240D01*
X136804165Y-102481654D01*
X136717927Y-102544310D01*
X136717925Y-102544312D01*
X136717924Y-102544312D01*
X136584312Y-102677924D01*
X136584312Y-102677925D01*
X136584310Y-102677927D01*
X136558779Y-102713067D01*
X136473240Y-102830800D01*
X136387454Y-102999163D01*
X136329059Y-103178881D01*
X136299500Y-103365513D01*
X127500500Y-103365513D01*
X127500500Y-97889778D01*
X129099500Y-97889778D01*
X129099500Y-98110221D01*
X129133985Y-98327952D01*
X129202103Y-98537603D01*
X129202104Y-98537606D01*
X129302187Y-98734025D01*
X129431752Y-98912358D01*
X129431756Y-98912363D01*
X129481928Y-98962535D01*
X129515413Y-99023858D01*
X129510429Y-99093550D01*
X129468557Y-99149483D01*
X129437581Y-99166398D01*
X129357669Y-99196203D01*
X129357664Y-99196206D01*
X129242455Y-99282452D01*
X129242452Y-99282455D01*
X129156206Y-99397664D01*
X129156202Y-99397671D01*
X129105908Y-99532517D01*
X129099501Y-99592116D01*
X129099501Y-99592123D01*
X129099500Y-99592135D01*
X129099500Y-101487870D01*
X129099501Y-101487876D01*
X129105908Y-101547483D01*
X129156202Y-101682328D01*
X129156206Y-101682335D01*
X129242452Y-101797544D01*
X129242455Y-101797547D01*
X129357664Y-101883793D01*
X129357671Y-101883797D01*
X129492517Y-101934091D01*
X129492516Y-101934091D01*
X129499444Y-101934835D01*
X129552127Y-101940500D01*
X131447872Y-101940499D01*
X131507483Y-101934091D01*
X131642331Y-101883796D01*
X131757546Y-101797546D01*
X131843796Y-101682331D01*
X131894091Y-101547483D01*
X131900500Y-101487873D01*
X131900499Y-99592128D01*
X131894091Y-99532517D01*
X131843796Y-99397669D01*
X131843795Y-99397668D01*
X131843793Y-99397664D01*
X131757547Y-99282455D01*
X131757544Y-99282452D01*
X131642335Y-99196206D01*
X131642328Y-99196202D01*
X131562419Y-99166398D01*
X131506485Y-99124527D01*
X131482068Y-99059062D01*
X131496920Y-98990789D01*
X131518069Y-98962537D01*
X131568242Y-98912365D01*
X131697815Y-98734022D01*
X131797895Y-98537606D01*
X131866015Y-98327951D01*
X131900500Y-98110222D01*
X131900500Y-97889778D01*
X135099500Y-97889778D01*
X135099500Y-98110221D01*
X135133985Y-98327952D01*
X135202103Y-98537603D01*
X135202104Y-98537606D01*
X135302187Y-98734025D01*
X135431752Y-98912358D01*
X135431756Y-98912363D01*
X135481928Y-98962535D01*
X135515413Y-99023858D01*
X135510429Y-99093550D01*
X135468557Y-99149483D01*
X135437581Y-99166398D01*
X135357669Y-99196203D01*
X135357664Y-99196206D01*
X135242455Y-99282452D01*
X135242452Y-99282455D01*
X135156206Y-99397664D01*
X135156202Y-99397671D01*
X135105908Y-99532517D01*
X135099501Y-99592116D01*
X135099501Y-99592123D01*
X135099500Y-99592135D01*
X135099500Y-101487870D01*
X135099501Y-101487876D01*
X135105908Y-101547483D01*
X135156202Y-101682328D01*
X135156206Y-101682335D01*
X135242452Y-101797544D01*
X135242455Y-101797547D01*
X135357664Y-101883793D01*
X135357671Y-101883797D01*
X135492517Y-101934091D01*
X135492516Y-101934091D01*
X135499444Y-101934835D01*
X135552127Y-101940500D01*
X137447872Y-101940499D01*
X137507483Y-101934091D01*
X137642331Y-101883796D01*
X137757546Y-101797546D01*
X137843796Y-101682331D01*
X137894091Y-101547483D01*
X137900500Y-101487873D01*
X137900499Y-99592128D01*
X137894091Y-99532517D01*
X137843796Y-99397669D01*
X137843795Y-99397668D01*
X137843793Y-99397664D01*
X137757547Y-99282455D01*
X137757544Y-99282452D01*
X137642335Y-99196206D01*
X137642328Y-99196202D01*
X137562419Y-99166398D01*
X137506485Y-99124527D01*
X137482068Y-99059062D01*
X137496920Y-98990789D01*
X137518069Y-98962537D01*
X137568242Y-98912365D01*
X137697815Y-98734022D01*
X137797895Y-98537606D01*
X137866015Y-98327951D01*
X137900500Y-98110222D01*
X137900500Y-97889778D01*
X137866015Y-97672049D01*
X137831955Y-97567221D01*
X137797896Y-97462396D01*
X137797895Y-97462393D01*
X137763237Y-97394375D01*
X137697815Y-97265978D01*
X137635712Y-97180500D01*
X137568247Y-97087641D01*
X137568243Y-97087636D01*
X137412363Y-96931756D01*
X137412358Y-96931752D01*
X137234025Y-96802187D01*
X137234024Y-96802186D01*
X137234022Y-96802185D01*
X137171096Y-96770122D01*
X137037606Y-96702104D01*
X137037603Y-96702103D01*
X136827952Y-96633985D01*
X136719086Y-96616742D01*
X136610222Y-96599500D01*
X136389778Y-96599500D01*
X136317201Y-96610995D01*
X136172047Y-96633985D01*
X135962396Y-96702103D01*
X135962393Y-96702104D01*
X135765974Y-96802187D01*
X135587641Y-96931752D01*
X135587636Y-96931756D01*
X135431756Y-97087636D01*
X135431752Y-97087641D01*
X135302187Y-97265974D01*
X135202104Y-97462393D01*
X135202103Y-97462396D01*
X135133985Y-97672047D01*
X135099500Y-97889778D01*
X131900500Y-97889778D01*
X131866015Y-97672049D01*
X131831955Y-97567221D01*
X131797896Y-97462396D01*
X131797895Y-97462393D01*
X131763237Y-97394375D01*
X131697815Y-97265978D01*
X131635712Y-97180500D01*
X131568247Y-97087641D01*
X131568243Y-97087636D01*
X131412363Y-96931756D01*
X131412358Y-96931752D01*
X131234025Y-96802187D01*
X131234024Y-96802186D01*
X131234022Y-96802185D01*
X131171096Y-96770122D01*
X131037606Y-96702104D01*
X131037603Y-96702103D01*
X130827952Y-96633985D01*
X130719086Y-96616742D01*
X130610222Y-96599500D01*
X130389778Y-96599500D01*
X130317201Y-96610995D01*
X130172047Y-96633985D01*
X129962396Y-96702103D01*
X129962393Y-96702104D01*
X129765974Y-96802187D01*
X129587641Y-96931752D01*
X129587636Y-96931756D01*
X129431756Y-97087636D01*
X129431752Y-97087641D01*
X129302187Y-97265974D01*
X129202104Y-97462393D01*
X129202103Y-97462396D01*
X129133985Y-97672047D01*
X129099500Y-97889778D01*
X127500500Y-97889778D01*
X127500500Y-93445513D01*
X128299500Y-93445513D01*
X128299500Y-93634486D01*
X128329059Y-93821118D01*
X128387454Y-94000836D01*
X128473240Y-94169199D01*
X128584310Y-94322073D01*
X128717927Y-94455690D01*
X128870801Y-94566760D01*
X128923794Y-94593761D01*
X129039163Y-94652545D01*
X129039165Y-94652545D01*
X129039168Y-94652547D01*
X129107594Y-94674780D01*
X129218881Y-94710940D01*
X129405514Y-94740500D01*
X129405519Y-94740500D01*
X129594486Y-94740500D01*
X129781118Y-94710940D01*
X129960832Y-94652547D01*
X130129199Y-94566760D01*
X130282073Y-94455690D01*
X130415690Y-94322073D01*
X130526760Y-94169199D01*
X130612547Y-94000832D01*
X130670940Y-93821118D01*
X130700500Y-93634486D01*
X130700500Y-93445513D01*
X132799500Y-93445513D01*
X132799500Y-93634486D01*
X132829059Y-93821118D01*
X132887454Y-94000836D01*
X132973240Y-94169199D01*
X133084310Y-94322073D01*
X133217927Y-94455690D01*
X133370801Y-94566760D01*
X133423794Y-94593761D01*
X133539163Y-94652545D01*
X133539165Y-94652545D01*
X133539168Y-94652547D01*
X133607594Y-94674780D01*
X133718881Y-94710940D01*
X133905514Y-94740500D01*
X133905519Y-94740500D01*
X134094486Y-94740500D01*
X134281118Y-94710940D01*
X134460832Y-94652547D01*
X134629199Y-94566760D01*
X134782073Y-94455690D01*
X134915690Y-94322073D01*
X135026760Y-94169199D01*
X135112547Y-94000832D01*
X135170940Y-93821118D01*
X135200500Y-93634486D01*
X135200500Y-93445513D01*
X135170940Y-93258881D01*
X135112545Y-93079163D01*
X135050323Y-92957046D01*
X135026760Y-92910801D01*
X134915690Y-92757927D01*
X134782073Y-92624310D01*
X134629199Y-92513240D01*
X134460836Y-92427454D01*
X134281118Y-92369059D01*
X134094486Y-92339500D01*
X134094481Y-92339500D01*
X133905519Y-92339500D01*
X133905514Y-92339500D01*
X133718881Y-92369059D01*
X133539163Y-92427454D01*
X133370800Y-92513240D01*
X133298320Y-92565901D01*
X133217927Y-92624310D01*
X133217925Y-92624312D01*
X133217924Y-92624312D01*
X133084312Y-92757924D01*
X133084312Y-92757925D01*
X133084310Y-92757927D01*
X133084231Y-92758036D01*
X132973240Y-92910800D01*
X132887454Y-93079163D01*
X132829059Y-93258881D01*
X132799500Y-93445513D01*
X130700500Y-93445513D01*
X130670940Y-93258881D01*
X130612545Y-93079163D01*
X130550323Y-92957046D01*
X130526760Y-92910801D01*
X130415690Y-92757927D01*
X130282073Y-92624310D01*
X130129199Y-92513240D01*
X129960836Y-92427454D01*
X129781118Y-92369059D01*
X129594486Y-92339500D01*
X129594481Y-92339500D01*
X129405519Y-92339500D01*
X129405514Y-92339500D01*
X129218881Y-92369059D01*
X129039163Y-92427454D01*
X128870800Y-92513240D01*
X128798320Y-92565901D01*
X128717927Y-92624310D01*
X128717925Y-92624312D01*
X128717924Y-92624312D01*
X128584312Y-92757924D01*
X128584312Y-92757925D01*
X128584310Y-92757927D01*
X128584231Y-92758036D01*
X128473240Y-92910800D01*
X128387454Y-93079163D01*
X128329059Y-93258881D01*
X128299500Y-93445513D01*
X127500500Y-93445513D01*
X127500500Y-87624500D01*
X127520185Y-87557461D01*
X127572989Y-87511706D01*
X127624500Y-87500500D01*
X128469855Y-87500500D01*
X128536894Y-87520185D01*
G37*
%TD.AperFunction*%
%TD*%
M02*
